<svg xmlns="http://www.w3.org/2000/svg" version="1.1" xmlns:xlink="http://www.w3.org/1999/xlink" xmlns:svgjs="http://svgjs.dev/svgjs" viewBox="0 0 1422 800"><g shape-rendering="crispEdges" stroke-linejoin="round" fill="hsl(29, 0%, 50%)"><polygon points="1066.5,0 1066.5,200 1422,200"></polygon><polygon points="888.75,100 888.75,0 1066.5,100"></polygon><polygon points="711,100 711,0 888.75,0"></polygon><polygon points="711,100 888.75,100 888.75,200"></polygon><polygon points="1066.5,200 888.75,200 1066.5,100"></polygon><polygon points="888.75,200 1066.5,200 888.75,300"></polygon><polygon points="711,300 888.75,200 711,200"></polygon><polygon points="888.75,300 888.75,400 711,300"></polygon><polygon points="888.75,400 1066.5,400 1066.5,300"></polygon><polygon points="1244.25,300 1244.25,200 1422,200"></polygon><polygon points="1244.25,200 1244.25,300 1066.5,300"></polygon><polygon points="1244.25,400 1244.25,300 1066.5,300"></polygon><polygon points="1244.25,400 1422,300 1244.25,300"></polygon><polygon points="711,100 533.25,0 711,0"></polygon><polygon points="533.25,0 355.5,0 355.5,100"></polygon><polygon points="533.25,200 355.5,200 355.5,100"></polygon><polygon points="711,200 711,100 533.25,100"></polygon><polygon points="355.5,0 177.75,100 355.5,100"></polygon><polygon points="177.75,100 0,100 177.75,0"></polygon><polygon points="177.75,100 0,100 0,200"></polygon><polygon points="355.5,100 355.5,200 177.75,100"></polygon><polygon points="177.75,200 355.5,300 355.5,200"></polygon><polygon points="0,200 177.75,200 177.75,300"></polygon><polygon points="0,400 177.75,300 177.75,400"></polygon><polygon points="177.75,300 355.5,400 355.5,300"></polygon><polygon points="533.25,300 711,200 711,300"></polygon><polygon points="533.25,200 355.5,300 355.5,200"></polygon><polygon points="533.25,300 444.375,350 444.375,300"></polygon><polygon points="444.375,300 355.5,350 444.375,350"></polygon><polygon points="444.375,350 444.375,400 355.5,400"></polygon><polygon points="444.375,400 533.25,350 444.375,350"></polygon><polygon points="711,350 622.125,350 622.125,300"></polygon><polygon points="622.125,350 622.125,300 533.25,300"></polygon><polygon points="622.125,400 533.25,400 622.125,350"></polygon><polygon points="711,350 711,400 622.125,400"></polygon><polygon points="711,400 711,500 533.25,400"></polygon><polygon points="533.25,400 444.375,450 533.25,450"></polygon><polygon points="444.375,450 444.375,400 355.5,400"></polygon><polygon points="444.375,450 444.375,500 355.5,450"></polygon><polygon points="533.25,450 533.25,500 444.375,450"></polygon><polygon points="533.25,500 533.25,550 444.375,550"></polygon><polygon points="444.375,550 444.375,500 355.5,550"></polygon><polygon points="355.5,600 444.375,550 444.375,600"></polygon><polygon points="533.25,600 533.25,550 444.375,550"></polygon><polygon points="711,550 711,500 622.125,500"></polygon><polygon points="622.125,550 533.25,500 622.125,500"></polygon><polygon points="622.125,550 622.125,600 533.25,600"></polygon><polygon points="711,600 711,550 622.125,600"></polygon><polygon points="355.5,400 355.5,500 177.75,500"></polygon><polygon points="177.75,400 0,400 177.75,500"></polygon><polygon points="0,500 177.75,600 0,600"></polygon><polygon points="355.5,600 177.75,600 177.75,500"></polygon><polygon points="177.75,700 355.5,600 355.5,700"></polygon><polygon points="0,700 177.75,600 177.75,700"></polygon><polygon points="177.75,700 177.75,800 0,800"></polygon><polygon points="355.5,700 177.75,700 177.75,800"></polygon><polygon points="533.25,600 533.25,700 711,700"></polygon><polygon points="444.375,650 533.25,650 444.375,600"></polygon><polygon points="444.375,600 355.5,600 355.5,650"></polygon><polygon points="444.375,700 355.5,650 355.5,700"></polygon><polygon points="444.375,650 444.375,700 533.25,700"></polygon><polygon points="355.5,700 533.25,800 533.25,700"></polygon><polygon points="533.25,700 711,700 533.25,800"></polygon><polygon points="1422,500 1244.25,500 1422,400"></polygon><polygon points="1066.5,400 1244.25,500 1066.5,500"></polygon><polygon points="1066.5,500 1244.25,600 1244.25,500"></polygon><polygon points="1422,600 1422,500 1244.25,500"></polygon><polygon points="1066.5,500 1066.5,400 888.75,500"></polygon><polygon points="888.75,400 799.875,400 888.75,450"></polygon><polygon points="799.875,400 799.875,450 711,400"></polygon><polygon points="799.875,450 799.875,500 711,450"></polygon><polygon points="888.75,500 799.875,450 799.875,500"></polygon><polygon points="888.75,600 711,500 711,600"></polygon><polygon points="888.75,500 1066.5,600 888.75,600"></polygon><polygon points="1066.5,700 888.75,700 888.75,600"></polygon><polygon points="888.75,650 799.875,650 799.875,600"></polygon><polygon points="799.875,600 711,600 799.875,650"></polygon><polygon points="799.875,650 799.875,700 711,650"></polygon><polygon points="799.875,700 888.75,650 888.75,700"></polygon><polygon points="888.75,700 888.75,800 711,800"></polygon><polygon points="1066.5,800 888.75,700 888.75,800"></polygon><polygon points="1422,600 1422,700 1244.25,700"></polygon><polygon points="1244.25,700 1066.5,700 1244.25,600"></polygon><polygon points="1244.25,700 1244.25,800 1066.5,800"></polygon><polygon points="1244.25,700 1422,700 1422,800"></polygon></g><g fill="hsl(220, 62%, 45%)" stroke-width="3" stroke="hsl(220, 43%, 13%)"></g></svg>